<svg height="137.25" width="307.97501" xmlns="http://www.w3.org/2000/svg" xmlns:xlink="http://www.w3.org/1999/xlink"><clipPath id="a"><path d="m0 0h2463.79v1098h-2463.79z"/></clipPath><g clip-path="url(#a)" transform="matrix(.125 0 0 -.125 0 137.25)"><path d="m1917.92 1098.01c-301.53 0-545.92-244.444-545.92-545.897 0-301.531 244.39-545.94112 545.92-545.94112 301.48 0 545.87 244.41012 545.87 545.94112 0 301.453-244.39 545.897-545.87 545.897m0-897.233c-194.03 0-351.33 157.285-351.33 351.285 0 194.012 157.3 351.321 351.33 351.321 193.98 0 351.3-157.309 351.3-351.321 0-194-157.32-351.285-351.3-351.285" fill="#fff"/><path d="m1055.35 831.906-137.909-137.949 153.819-144.969-152.608-143.836 137.848-137.871 281.73 281.707z" fill="#fff"/><path d="m548.184 0c-136.082 0-259.532 47.2188-366.856 140.582-120.371 105.176-181.328 243.828-181.328 412.035 0 149.336 55.2227 279.035 164.082 385.559 107.766 106.004 239.297 159.814 390.762 159.814 150.254 0 280.91-54.41 388.144-161.623l-142.422-142.449c-69.101 69.07-149.461 102.656-245.722 102.656-98.106 0-179.785-33.445-249.715-102.176-69.797-68.363-103.691-147.394-103.691-241.781 0-109.027 36.753-194.125 112.222-260.082 70.461-61.23 147.18-91.113 234.524-91.113 99.738 0 182.414 33.359 252.785 101.933l140.625-144.277c-108.332-105.5663-240.688-159.078-393.41-159.078" fill="#9a9a96"/></g></svg>